<svg xmlns="http://www.w3.org/2000/svg" viewBox="0 0 32 96" enable-background="new 0 0 32 96"><path fill="#DDD" d="M29.8 2.3l-.1-.1C26.8-.7 21.9-.7 19 2.2L12.2 9c-2.9 2.9-2.9 7.8 0 10.7l.1.1c.2.2.5.5.8.7l2.5-2.5c-.3-.2-.6-.4-.8-.6l-.1-.1c-1.6-1.6-1.6-4.2 0-5.8l6.8-6.8c1.6-1.6 4.2-1.6 5.8 0l.1.1c1.6 1.6 1.6 4.2 0 5.8l-3.1 3.1c.5 1.3.8 2.7.8 4.1l4.8-4.8c2.8-2.9 2.8-7.7-.1-10.7zm-10.1 9.9c-.2-.2-.5-.5-.8-.7L16.5 14c.3.2.6.4.8.6l.1.1c1.6 1.6 1.6 4.2 0 5.8l-6.8 6.8c-1.6 1.6-4.2 1.6-5.8 0l-.1-.1c-1.6-1.6-1.6-4.2 0-5.8l3.1-3.1C7.2 17 7 15.6 7 14.2L2.2 19c-2.9 2.9-2.9 7.8 0 10.7l.1.1c2.9 2.9 7.8 2.9 10.7 0l6.8-6.8c2.9-2.9 2.9-7.8 0-10.7l-.1-.1z"/><path fill="#F22" d="M29.8 66.3l-.1-.1c-2.9-2.9-7.8-2.9-10.7 0L12.2 73c-2.9 2.9-2.9 7.8 0 10.7l.1.1c.2.2.5.5.8.7l2.5-2.5c-.3-.2-.6-.4-.8-.6l-.1-.1c-1.6-1.6-1.6-4.2 0-5.8l6.8-6.8c1.6-1.6 4.2-1.6 5.8 0l.1.1c1.6 1.6 1.6 4.2 0 5.8l-3.1 3.1c.5 1.3.8 2.7.8 4.1l4.8-4.8c2.8-2.9 2.8-7.7-.1-10.7zm-10.1 9.9c-.2-.2-.5-.5-.8-.7L16.5 78c.3.2.6.4.8.6l.1.1c1.6 1.6 1.6 4.2 0 5.8l-6.8 6.8c-1.6 1.6-4.2 1.6-5.8 0l-.1-.1c-1.6-1.6-1.6-4.2 0-5.8l3.1-3.1C7.2 81 7 79.6 7 78.2L2.2 83c-2.9 2.9-2.9 7.8 0 10.7l.1.1c2.9 2.9 7.8 2.9 10.7 0l6.8-6.8c2.9-2.9 2.9-7.8 0-10.7l-.1-.1z"/></svg>