<svg viewBox="0 0 346 196" xmlns="http://www.w3.org/2000/svg" fill-rule="evenodd" clip-rule="evenodd" stroke-linejoin="round" stroke-miterlimit="1.414"><path fill="#111" d="M0 0h346v196H0z"/><path d="M185 140h18v6h-60v-6h18v-24h6v24h12v-24h6v24zm-36-18.12v.12c0 4.44 1.2 8.592 3.312 12.162h-6.732c-1.668-3.72-2.58-7.842-2.58-12.162v-.12h6zM173 92c16.56 0 30 13.44 30 30 0 4.32-.918 8.442-2.58 12.162h-6.72c2.1-3.57 3.312-7.728 3.312-12.162 0-13.248-10.752-24-24-24v-6H173zm18 18h-36v6h36v-6zm-18-12c-13.248 0-24-10.752-24-24s10.752-24 24-24 24 10.752 24 24h-6c0-9.936-8.064-18-18-18s-18 8.064-18 18 8.064 18 18 18v6zm0-36c6.624 0 12 5.376 12 12s-5.376 12-12 12-12-5.376-12-12 5.376-12 12-12zm0 6c3.312 0 6 2.688 6 6s-2.688 6-6 6-6-2.688-6-6 2.688-6 6-6z" fill="#fff"/></svg>